<svg width="16" height="9" viewBox="0 0 16 9" fill="none" xmlns="http://www.w3.org/2000/svg">
<path d="M8.62432 8.75564L15.7444 1.93832C15.9092 1.78065 16 1.57016 16 1.34573C16 1.12129 15.9092 0.910811 15.7444 0.753135L15.2202 0.251087C14.8786 -0.0755992 14.3234 -0.0755992 13.9823 0.251087L8.00332 5.97575L2.01767 0.244734C1.85286 0.0870582 1.63316 9.80484e-09 1.39888 0C1.16435 -9.81573e-09 0.944642 0.0870582 0.7797 0.244734L0.255607 0.746782C0.0907956 0.904583 1.02462e-08 1.11494 0 1.33938C-1.02462e-08 1.56381 0.0907955 1.77429 0.255607 1.93197L7.38218 8.75564C7.54752 8.91369 7.76826 9.0005 8.00293 9C8.2385 9.0005 8.45912 8.91369 8.62432 8.75564Z" fill="#333333"/>
</svg>
