<svg width="25" height="24" viewBox="0 0 25 24" fill="none" xmlns="http://www.w3.org/2000/svg">
<path d="M22.6591 2.37038C19.5434 -0.790125 14.4733 -0.790125 11.357 2.37038L1.66906 12.1968C-0.556477 14.4545 -0.55633 18.1278 1.66936 20.3853C2.7823 21.5142 4.24372 22.0786 5.70574 22.0784C7.16736 22.0783 8.62957 21.514 9.74232 20.3853L18.6226 11.3777C19.2696 10.7216 19.6259 9.84916 19.626 8.92123C19.626 7.99325 19.2698 7.12088 18.6227 6.46456C17.2872 5.11005 15.1141 5.1101 13.7789 6.4648L7.97151 12.3551C7.52566 12.8073 7.52566 13.5405 7.97142 13.9928C8.41722 14.4451 9.14012 14.445 9.58602 13.9928L15.3934 8.10246C15.8386 7.65092 16.5628 7.65082 17.008 8.10236C17.2237 8.32107 17.3425 8.61189 17.3425 8.92118C17.3425 9.23048 17.2237 9.5212 17.008 9.74001L8.12771 18.7475C6.79221 20.102 4.61936 20.1022 3.28396 18.7476C1.94856 17.393 1.94846 15.189 3.28371 13.8344L12.9716 4.00808C15.1974 1.75045 18.819 1.75045 21.0445 4.00808C22.1228 5.10163 22.7166 6.55568 22.7166 8.10226C22.7166 9.64883 22.1228 11.1029 21.0445 12.1965L11.3568 22.0231C10.911 22.4754 10.911 23.2086 11.3569 23.6608C11.5799 23.887 11.8721 24 12.1642 24C12.4564 24 12.7486 23.8869 12.9715 23.6608L22.6591 13.8343C24.1687 12.3033 25 10.2676 25 8.10231C25 5.93705 24.1687 3.9014 22.6591 2.37038Z" fill="white"/>
</svg>
