<svg width="62" height="64" viewBox="0 0 62 64" fill="none" xmlns="http://www.w3.org/2000/svg">
<path d="M38.8363 6.69953C38.4661 5.99881 37.8145 5.50431 37.0022 5.30672L16.3307 0.280444C15.0181 -0.0392743 14.3802 0.542829 14.1672 0.807847C13.9522 1.07418 13.5193 1.82229 14.1452 3.01224L17.1052 8.64445C11.8684 11.8052 -4.76767 23.465 2.01193 40.4874C2.16301 40.8676 2.53516 41.1184 2.95226 41.1225C2.95524 41.1225 2.95808 41.1225 2.96121 41.1225C3.37427 41.1225 3.74643 40.8778 3.90333 40.504C3.9599 40.3691 9.64468 27.2178 24.6862 23.071L27.6422 28.6946C28.2662 29.8838 29.1369 29.9718 29.4841 29.9516C29.8296 29.9341 30.6854 29.7592 31.1771 28.5201L38.9378 8.98275C39.2394 8.22514 39.2026 7.39264 38.8363 6.69953ZM37.0387 8.25775L29.3568 27.5962L26.1225 21.4409C25.9054 21.0273 25.4288 20.816 24.9651 20.9305C12.1169 24.135 5.58139 33.2439 3.15214 37.5101C-1.05968 22.1899 15.4589 11.8725 18.96 9.88399C19.4298 9.61721 19.6031 9.03628 19.3541 8.56299L16.047 2.26852L36.5102 7.24433C36.7489 7.30254 36.927 7.43154 37.0257 7.61729C37.1242 7.80377 37.1282 8.03091 37.0387 8.25775Z" fill="white"/>
<path d="M59.9666 22.7883C59.8155 22.4078 59.4423 22.1563 59.0252 22.1528C59.0231 22.1528 59.0205 22.1528 59.0173 22.1528C58.6044 22.1528 58.2311 22.3975 58.0739 22.7728C58.0183 22.9073 52.3706 36.0498 37.292 40.2037L34.3361 34.5811C33.7112 33.3921 32.8365 33.3091 32.4941 33.3236C32.1487 33.3413 31.2928 33.5158 30.8011 34.7544L23.0404 54.2921C22.7387 55.0504 22.7757 55.883 23.1428 56.5765C23.513 57.2766 24.1638 57.7708 24.9759 57.9681L45.6485 62.9955C45.9173 63.0609 46.158 63.0881 46.372 63.0881C47.2028 63.0881 47.6418 62.6773 47.8109 62.4668C48.0259 62.2005 48.4588 61.4524 47.8329 60.2623L44.8732 54.6302C50.11 51.4689 66.7449 39.8082 59.9666 22.7883ZM43.0187 53.3904C42.5489 53.657 42.3756 54.2381 42.6246 54.7111L45.9325 61.0069L25.4671 56.0299C25.2292 55.9723 25.0511 55.8434 24.9526 55.6577C24.8539 55.4712 24.8491 55.2436 24.9396 55.0165L32.6205 35.6782L35.8564 41.8327C36.0734 42.2463 36.5501 42.4587 37.0137 42.3431C49.8616 39.1397 56.3974 30.0311 58.8267 25.7652C63.0372 41.0828 46.5198 51.4016 43.0187 53.3904Z" fill="white"/>
</svg>
