<svg width="25" height="20" viewBox="0 0 25 20" fill="none" xmlns="http://www.w3.org/2000/svg">
<path d="M22.7677 20C23.3296 20 23.8166 19.8111 24.2305 19.438L17.1476 12.2261C16.9777 12.35 16.813 12.4705 16.6574 12.5851C16.1273 12.9827 15.6971 13.293 15.3668 13.5153C15.0365 13.7381 14.597 13.9653 14.0485 14.1972C13.4995 14.4294 12.9881 14.5451 12.5137 14.5451H12.486C12.0115 14.5451 11.5001 14.4294 10.9512 14.1972C10.4023 13.9653 9.96287 13.7381 9.63289 13.5153C9.3026 13.293 8.87263 12.9827 8.34231 12.5851C8.19452 12.4747 8.03062 12.3537 7.85342 12.2242L0.769161 19.438C1.18306 19.8111 1.67031 20 2.23223 20H22.7677Z" fill="#FF9200"/>
<path d="M1.40919 7.68475C0.879184 7.32497 0.409181 6.91293 0 6.4488V17.4212L6.24284 11.0648C4.99392 10.1771 3.38474 9.05166 1.40919 7.68475Z" fill="#FF9200"/>
<path d="M23.6049 7.68475C21.7047 8.99427 20.0897 10.1216 18.7597 11.0674L25 17.4214V6.4488C24.5999 6.90359 24.1349 7.31536 23.6049 7.68475Z" fill="#FF9200"/>
<path d="M22.7677 0H2.23227C1.51585 0 0.96506 0.246321 0.579208 0.738454C0.193039 1.23082 0.000272334 1.84657 0.000272334 2.58503C0.000272334 3.18151 0.256084 3.82782 0.767482 4.52412C1.27888 5.22015 1.82305 5.76686 2.39971 6.16454C2.71585 6.39195 3.6692 7.06677 5.25976 8.18876C6.11838 8.79458 6.86508 9.32262 7.50674 9.77829C8.05368 10.1663 8.52536 10.5023 8.9148 10.7812C8.9595 10.8131 9.02981 10.8643 9.12313 10.9323C9.22367 11.0058 9.35089 11.0991 9.50785 11.2145C9.81009 11.437 10.0612 11.617 10.2612 11.7544C10.4609 11.8919 10.7028 12.0455 10.9867 12.216C11.2703 12.3863 11.5379 12.5143 11.789 12.5995C12.0401 12.6846 12.2726 12.7273 12.4865 12.7273H12.5142C12.7281 12.7273 12.9606 12.6846 13.2118 12.5995C13.4628 12.5143 13.7301 12.3866 14.014 12.216C14.2976 12.0455 14.5392 11.8916 14.7396 11.7544C14.9395 11.617 15.1906 11.4371 15.4929 11.2145C15.6496 11.0991 15.7768 11.0057 15.8773 10.9325C15.9707 10.8643 16.041 10.8134 16.0859 10.7812C16.3893 10.5662 16.8621 10.2316 17.4977 9.78222C18.6543 8.964 20.3577 7.75971 22.6149 6.16454C23.2938 5.68174 23.861 5.09912 24.3169 4.41751C24.7719 3.7359 25 3.02092 25 2.27281C25 1.64776 24.7788 1.11293 24.3374 0.667469C23.8955 0.222567 23.3722 0 22.7677 0Z" fill="#FF9200"/>
</svg>
