<svg width="23" height="27" viewBox="0 0 23 27" fill="none" xmlns="http://www.w3.org/2000/svg">
<path d="M11.4999 9.08514C10.0899 9.08514 8.94265 10.2507 8.94265 11.6833C8.94265 13.1158 10.0899 14.2813 11.4999 14.2813C12.9101 14.2813 14.0571 13.1158 14.0571 11.6833C14.0571 10.2507 12.9101 9.08514 11.4999 9.08514Z" fill="#FF9200"/>
<path d="M19.6317 3.42197C17.4597 1.21536 14.5718 0 11.4999 0C8.42824 0 5.54029 1.21536 3.3683 3.42197C1.1963 5.62857 0 8.56254 0 11.6831C0 14.8039 1.1963 17.7379 3.3683 19.9445L9.47795 26.1517C10.0165 26.6988 10.7345 27 11.4999 27C12.2651 27 12.9831 26.6988 13.5216 26.1517L19.6317 19.9445C21.8039 17.7379 23 14.8039 23 11.6831C23 8.56254 21.8039 5.62857 19.6317 3.42197ZM11.4999 15.8634C9.23118 15.8634 7.38543 13.9882 7.38543 11.6831C7.38543 9.37827 9.23118 7.50311 11.4999 7.50311C13.7686 7.50311 15.6144 9.37827 15.6144 11.6831C15.6144 13.9882 13.7686 15.8634 11.4999 15.8634Z" fill="#FF9200"/>
</svg>
