<svg width="432" height="262" viewBox="0 0 432 262" fill="none" xmlns="http://www.w3.org/2000/svg">
<path opacity="0.1" fill-rule="evenodd" clip-rule="evenodd" d="M315.111 58.0459L315.111 29.0224L286.033 29.0224L286.033 1.12072e-05L256.95 8.66463e-06L256.95 29.0224L227.865 29.0224L227.865 58.0459L256.95 58.0459L256.95 87.0749L286.033 87.0749L286.033 58.0459L315.111 58.0459V58.0459ZM33.2887 134.884L49.9342 134.884L49.9342 118.268L33.2887 118.268L33.2887 101.65L16.6443 101.65L16.6443 118.268L-2.42669e-05 118.268L-2.57195e-05 134.884L16.6443 134.884L16.6443 151.489L33.2887 151.489L33.2887 134.884ZM432 2.3968e-05L388.221 2.01407e-05L388.221 43.6434L344.504 43.6434L344.504 87.3496L388.221 87.3496L388.221 130.999L432 130.999L432 2.3968e-05V2.3968e-05ZM388.221 130.999L344.504 130.999L344.504 174.706L300.723 174.706L300.723 130.999L256.95 130.999L256.95 87.3496L213.219 87.3495L213.219 130.999L169.447 130.999L169.447 174.706L140.36 174.706L140.36 145.678L111.276 145.678L111.276 174.706L82.1916 174.706L82.1916 203.73L111.276 203.73L111.276 232.754L140.36 232.754L140.36 203.73L169.447 203.73L169.447 174.706L213.219 174.706L213.219 218.358L256.95 218.358L256.95 174.706L300.723 174.706L300.723 218.358L344.504 218.358L344.504 262L388.221 262L388.221 218.358L432 218.358L432 174.706L388.221 174.706L388.221 130.999ZM111.276 123.525L111.276 100.654L134.19 100.654L134.19 77.7918L111.276 77.7918L111.276 54.9282L88.3619 54.9282L88.3619 77.7918L65.4531 77.7918L65.4531 100.654L88.3619 100.654L88.3619 123.525L111.276 123.525Z" fill="white"/>
</svg>
