<svg width="23" height="23" viewBox="0 0 23 23" fill="none" xmlns="http://www.w3.org/2000/svg">
<path d="M11.5 0C5.14912 0 0 5.14912 0 11.5C0 17.8509 5.14912 23 11.5 23C17.8509 23 23 17.8509 23 11.5C23 5.14912 17.8509 0 11.5 0ZM17.25 17.9688C10.5124 17.9688 5.03125 12.4876 5.03125 5.75C5.03125 5.35325 5.35325 5.03125 5.75 5.03125H8.40363C8.80037 5.03125 9.12238 5.35325 9.12238 5.75C9.12238 6.992 9.39262 8.17506 9.92594 9.26469C10.0108 9.43719 10.0223 9.63412 9.959 9.81525C9.89719 9.99638 9.76494 10.1444 9.59244 10.2278L8.52006 10.7453C9.41275 12.2992 10.7008 13.5887 12.2533 14.4785L12.7708 13.4076C12.8541 13.2351 13.0022 13.1042 13.1833 13.041C13.3644 12.9792 13.5628 12.9907 13.7339 13.0741C14.8264 13.6074 16.008 13.8776 17.2486 13.8776C17.6453 13.8776 17.9673 14.1996 17.9673 14.5964V17.25H17.9688C17.9688 17.6467 17.6467 17.9688 17.25 17.9688Z" fill="#FF9200"/>
</svg>
