<svg width="28" height="24" viewBox="0 0 28 24" fill="none" xmlns="http://www.w3.org/2000/svg">
<path d="M25.9735 0.517611C26.9303 0.144298 27.9193 0.981486 27.7092 1.98667L23.4183 22.4974C23.2179 23.459 22.0882 23.8921 21.2963 23.3103L14.8187 18.5556L11.5169 21.9269C10.9367 22.5185 9.9363 22.2776 9.6874 21.4889L7.30521 13.9269L0.919709 12.0408C0.0809277 11.7935 0.032459 10.6267 0.845365 10.3083L25.9735 0.517611ZM22.8236 5.0687C23.1031 4.82139 22.7783 4.38508 22.4615 4.58224L8.67883 13.1301C8.4364 13.2804 8.32493 13.5761 8.41052 13.8492L10.2901 22.103C10.3273 22.2291 10.5083 22.2113 10.5245 22.0804L10.9447 15.7903C10.9608 15.6352 11.0351 15.493 11.1516 15.3895L22.8236 5.0687Z" fill="white"/>
<path d="M22.4616 4.58219C22.7784 4.38503 23.1032 4.82134 22.8237 5.06865L11.1518 15.3895C11.0354 15.4929 10.9611 15.6351 10.9449 15.7903L10.5247 22.0803C10.5086 22.2112 10.3275 22.229 10.2903 22.1029L8.41072 13.8492C8.32503 13.5761 8.43659 13.2803 8.67903 13.13L22.4616 4.58219Z" fill="#9EC2E5"/>
<path d="M10.3582 22.1886C10.0543 22.0803 9.79736 21.8379 9.68749 21.4887L7.3053 13.9267L0.9198 12.0406C0.0810192 11.7933 0.0325505 10.6265 0.845457 10.3081L25.9735 0.517516C26.5908 0.276672 27.2228 0.54011 27.5347 1.02827C27.4765 0.939391 27.407 0.856985 27.3295 0.784235L10.2821 14.701V15.3102L10.1884 15.2424L10.2821 19.0792V22.1563C10.3064 22.1677 10.3322 22.1773 10.3581 22.1854V22.1886H10.3582Z" fill="white"/>
<path d="M27.7367 1.64237C27.7416 1.75224 27.7335 1.86859 27.7092 1.98662L23.4183 22.4973C23.2178 23.4589 22.0882 23.8921 21.2962 23.3102L14.8187 18.5555L10.2821 15.3103V14.701L27.3294 0.78418C27.407 0.85693 27.4765 0.939336 27.5347 1.02821C27.546 1.04762 27.5572 1.06534 27.5686 1.08315C27.5782 1.10255 27.5896 1.12196 27.5993 1.13968C27.609 1.15909 27.6187 1.17849 27.6268 1.1979C27.6365 1.2189 27.6446 1.23831 27.6527 1.25931C27.6592 1.27712 27.6672 1.29643 27.6737 1.31752C27.6947 1.38052 27.7108 1.44521 27.7222 1.51309C27.7286 1.55509 27.7335 1.59718 27.7367 1.64237Z" fill="#D1D1D1"/>
<path d="M14.8187 18.5555L11.5169 21.9268C11.4895 21.9543 11.4604 21.9817 11.4313 22.006C11.4022 22.0303 11.373 22.0513 11.3424 22.0723C11.3408 22.0739 11.3408 22.0739 11.3408 22.0739C11.2794 22.1143 11.2164 22.1482 11.1501 22.1757C11.1162 22.1886 11.0838 22.2016 11.0499 22.2096C10.9093 22.2516 10.7654 22.263 10.6232 22.2485C10.5861 22.2453 10.5489 22.2388 10.5134 22.2323C10.5085 22.2323 10.5037 22.2307 10.4988 22.2291C10.4633 22.2195 10.4277 22.2097 10.3921 22.1984C10.3808 22.1952 10.3695 22.1919 10.3582 22.1855L10.2823 19.0792V15.3103L14.8187 18.5555Z" fill="#D1D1D1"/>
<path d="M11.4312 22.0059C11.4022 22.0301 11.373 22.0527 11.3423 22.0737V22.0721C11.3731 22.0511 11.4022 22.0301 11.4312 22.0059Z" fill="#DADDE0"/>
<path d="M11.3424 22.072V22.0736C11.3424 22.0736 11.3424 22.072 11.3408 22.0736C11.3408 22.0736 11.3408 22.0736 11.3424 22.072Z" fill="#DADDE0"/>
<path d="M11.1501 22.1755C11.2164 22.1481 11.2794 22.1141 11.3408 22.0737C11.2794 22.114 11.2147 22.148 11.1501 22.1755Z" fill="#DADDE0"/>
<path d="M10.6232 22.2483C10.7654 22.2628 10.9092 22.2515 11.0499 22.2095C10.948 22.2418 10.8429 22.2563 10.7379 22.2563C10.7056 22.2563 10.6733 22.2548 10.6426 22.2515C10.6361 22.2516 10.6297 22.2516 10.6232 22.2483Z" fill="#DADDE0"/>
<path d="M10.738 22.2566C10.7056 22.2566 10.6733 22.255 10.6426 22.2517C10.6733 22.255 10.7056 22.2566 10.738 22.2566Z" fill="white"/>
<path d="M10.6232 22.2485C10.6297 22.2517 10.6362 22.2517 10.6427 22.2517C10.6087 22.2501 10.578 22.2452 10.5457 22.2388C10.5715 22.2437 10.5974 22.2469 10.6232 22.2485Z" fill="white"/>
<path d="M10.6232 22.2483C10.5974 22.2467 10.5715 22.2434 10.5457 22.2386C10.5344 22.2371 10.5231 22.2355 10.5134 22.2322C10.5489 22.2386 10.586 22.2451 10.6232 22.2483Z" fill="#DADDE0"/>
<path d="M10.3922 22.1982C10.4277 22.2096 10.4633 22.2192 10.4988 22.229C10.4843 22.2258 10.4698 22.2225 10.4552 22.2193C10.4488 22.2177 10.4423 22.2161 10.4374 22.2129C10.4228 22.2096 10.4067 22.2047 10.3922 22.1982Z" fill="#DADDE0"/>
<path d="M10.4551 22.2192C10.4697 22.2224 10.4842 22.2257 10.4987 22.2289C10.4842 22.2273 10.4697 22.2241 10.4551 22.2192Z" fill="white"/>
<path d="M10.3921 22.1982C10.4067 22.2047 10.4229 22.2096 10.4374 22.2128C10.4131 22.2079 10.3889 22.1998 10.3647 22.1902C10.3743 22.1934 10.3824 22.1967 10.3921 22.1982Z" fill="white"/>
<path d="M10.3922 22.1984C10.3825 22.1968 10.3743 22.1935 10.3647 22.1903C10.3631 22.1919 10.3598 22.1903 10.3582 22.1887V22.1855C10.3695 22.1919 10.3808 22.1951 10.3922 22.1984Z" fill="#DADDE0"/>
<path d="M10.2821 19.0791L10.3581 22.1853C10.3322 22.1773 10.3063 22.1675 10.2821 22.1563V19.0791Z" fill="#D1D1D1"/>
<path d="M10.2821 15.3103V19.0792L10.1884 15.2424L10.2821 15.3103Z" fill="#DADDE0"/>
<path d="M22.8236 5.0686L11.1517 15.3894C11.0353 15.4929 10.961 15.6351 10.9448 15.7902L10.5253 22.0809C10.5092 22.2117 10.3282 22.2295 10.2894 22.1035L8.41063 13.8492C8.32494 13.5761 8.4365 13.2803 8.67894 13.1301L22.4616 4.58222C22.7784 4.38497 23.1032 4.82138 22.8236 5.0686Z" fill="#ADBCC9"/>
</svg>
