<svg width="58" height="58" viewBox="0 0 58 58" fill="none" xmlns="http://www.w3.org/2000/svg">
<path d="M29.6644 19.185C29.3909 18.8035 28.8584 18.7149 28.4749 18.9872C28.0915 19.2594 28.0025 19.7893 28.2761 20.1707C29.0874 21.302 29.5162 22.635 29.5162 24.0259C29.5162 27.6913 26.5193 30.6732 22.8354 30.6732C19.1516 30.6732 16.1546 27.6913 16.1546 24.0259C16.1546 20.3605 19.1516 17.3784 22.8354 17.3784C23.8821 17.3784 24.8858 17.614 25.819 18.0784C26.2402 18.2882 26.7526 18.1184 26.9633 17.6992C27.174 17.2801 27.0034 16.7704 26.5821 16.5606C25.4099 15.9772 24.1493 15.6813 22.8354 15.6813C18.2111 15.6813 14.449 19.4247 14.449 24.0259C14.449 28.6271 18.2111 32.3703 22.8354 32.3703C27.4597 32.3703 31.2218 28.6271 31.2218 24.0259C31.2219 22.2797 30.6834 20.6058 29.6644 19.185Z" fill="#FF9200"/>
<path d="M25.6717 36.1437C27.2374 36.1437 28.6549 37.1249 29.199 38.5854C29.3627 39.0248 29.8534 39.2491 30.2951 39.086C30.7367 38.9231 30.962 38.4349 30.7982 37.9955C30.0074 35.8729 27.9471 34.4466 25.6717 34.4466C22.6575 34.4466 20.2053 36.8866 20.2053 39.8857C20.2053 42.8849 22.6575 45.3248 25.6717 45.3248C27.7621 45.3248 29.6389 44.1663 30.5696 42.3014C30.779 41.8816 30.6069 41.3724 30.185 41.164C29.7631 40.9558 29.2513 41.127 29.0419 41.5466C28.4014 42.8303 27.11 43.6277 25.6718 43.6277C23.5981 43.6277 21.911 41.9491 21.911 39.8857C21.911 37.8224 23.5979 36.1437 25.6717 36.1437Z" fill="#FF9200"/>
<path d="M44.0489 26.4603C44.0489 24.2025 42.2029 22.3658 39.9338 22.3658C37.6648 22.3658 35.8187 24.2026 35.8187 26.4603C35.8187 28.7181 37.6648 30.5549 39.9338 30.5549C42.2029 30.5549 44.0489 28.7181 44.0489 26.4603ZM39.9338 28.8578C38.6051 28.8578 37.5243 27.7823 37.5243 26.4603C37.5243 25.1383 38.6052 24.0629 39.9338 24.0629C41.2624 24.0629 42.3433 25.1384 42.3433 26.4603C42.3433 27.7823 41.2624 28.8578 39.9338 28.8578Z" fill="#FF9200"/>
<path d="M39.0917 18.7824C39.5627 18.7824 39.9445 18.4025 39.9445 17.9338C39.9445 17.4652 39.5627 17.0853 39.0917 17.0853H36.6715C36.2005 17.0853 35.8187 17.4652 35.8187 17.9338C35.8187 18.4025 36.2005 18.7824 36.6715 18.7824H39.0917Z" fill="#FF9200"/>
<path d="M15.3018 34.4466C14.8308 34.4466 14.449 34.8265 14.449 35.2952C14.449 35.7638 14.8308 36.1437 15.3018 36.1437H17.2825C17.7535 36.1437 18.1353 35.7638 18.1353 35.2952C18.1353 34.8265 17.7535 34.4466 17.2825 34.4466H15.3018Z" fill="#FF9200"/>
<path d="M33.7093 32.8626C33.2383 32.8626 32.8565 33.2426 32.8565 33.7112C32.8565 34.1798 33.2383 34.5597 33.7093 34.5597H35.307C35.778 34.5597 36.1598 34.1798 36.1598 33.7112C36.1598 33.2426 35.778 32.8626 35.307 32.8626H33.7093Z" fill="#FF9200"/>
<path d="M38.1496 39.8454C37.6786 39.8454 37.2968 40.2254 37.2968 40.694C37.2968 41.1626 37.6786 41.5426 38.1496 41.5426H40.0379C40.5088 41.5426 40.8907 41.1626 40.8907 40.694C40.8907 40.2254 40.5088 39.8454 40.0379 39.8454H38.1496Z" fill="#FF9200"/>
<path d="M57.4064 30.0657C56.9431 29.5255 56.2527 29.209 55.5041 29.1911C54.3309 29.0336 53.2102 29.6294 52.6566 30.6111L50.4505 29.9696C50.4632 29.6674 50.4697 29.3631 50.4697 29.0644C50.4697 27.2258 50.2375 25.4182 49.7851 23.6738L51.9142 22.6663C52.3395 22.465 52.5203 21.9588 52.318 21.5355C52.1158 21.1124 51.6073 20.9323 51.1816 21.1337L49.2867 22.0303C48.6393 20.1705 47.7325 18.3986 46.5779 16.7576L48.0202 14.9916C48.4892 15.2643 49.0224 15.4167 49.5806 15.4316C50.4545 15.4545 51.2858 15.1381 51.9205 14.5395C53.2107 13.323 53.2809 11.2737 52.0773 9.97143C51.7585 9.62646 51.2189 9.60406 50.8724 9.9212C50.5257 10.2384 50.503 10.7752 50.8219 11.1201C51.3984 11.7439 51.3649 12.7253 50.7473 13.3077C50.4432 13.5944 50.0449 13.7455 49.6263 13.7351C49.2075 13.7239 48.8183 13.5511 48.5301 13.2486L48.5069 13.2242C48.338 13.0469 48.0992 12.9516 47.8554 12.96C47.6102 12.9694 47.3808 13.0834 47.2261 13.2729L45.2267 15.7211C44.7639 16.2877 44.7357 17.1011 45.158 17.6988C47.5172 21.0377 48.7641 24.9678 48.7641 29.0643C48.7641 29.3521 48.7576 29.6459 48.7448 29.9371C48.7112 30.6955 49.1981 31.3736 49.9289 31.5859L52.9401 32.4615C53.1734 32.5297 53.4248 32.4949 53.6309 32.367C53.8371 32.239 53.9785 32.0295 54.0198 31.7912C54.1236 31.1914 54.6993 30.7813 55.3028 30.8768C55.3471 30.8838 55.3919 30.8873 55.4368 30.8873C55.7155 30.8873 55.9543 30.9868 56.1093 31.1673C56.2642 31.3479 56.3253 31.5982 56.2815 31.8721L55.7576 35.1468C55.7104 35.4418 55.5507 35.7008 55.3077 35.8761C55.0648 36.0515 54.768 36.1221 54.4712 36.0753C53.8677 35.9797 53.4485 35.412 53.537 34.8098C53.5723 34.5705 53.5031 34.3277 53.347 34.1422C53.191 33.9568 52.9629 33.8465 52.72 33.8389L49.5122 33.7386C48.7741 33.7182 48.1035 34.1912 47.8856 34.8955C47.3845 36.5148 46.6726 38.067 45.7699 39.5091C45.3598 40.1642 45.4576 41.0005 46.0079 41.5429L47.7889 43.2978C48.2059 43.7089 48.8715 43.727 49.3043 43.3387C49.7595 42.93 50.7054 42.8747 51.1445 43.2307C51.1793 43.259 51.2162 43.2844 51.2551 43.3068C51.4962 43.446 51.6524 43.6514 51.6951 43.8849C51.7379 44.1184 51.6644 44.3654 51.4884 44.5804L49.3824 47.1504C49.1928 47.3819 48.9238 47.5259 48.6252 47.5561C48.3266 47.5865 48.0341 47.4991 47.8014 47.3102C47.3735 46.9631 47.2638 46.0999 47.5799 45.5676C47.7288 45.3172 47.7699 45.0234 47.696 44.7409C47.6226 44.4601 47.4357 44.2152 47.1836 44.0689L44.955 42.7766C44.3082 42.4014 43.4863 42.5084 42.9566 43.037C40.793 45.1951 38.1236 46.8476 35.2367 47.816C34.5139 48.0587 34.0542 48.7553 34.119 49.5102L34.3855 52.616C34.4062 52.8569 34.5292 53.0777 34.7237 53.2226C34.9181 53.3678 35.1657 53.4233 35.4038 53.3756C36.0055 53.2553 36.5832 53.6258 36.7204 54.2194C36.7848 54.498 36.7306 54.7916 36.568 55.046C36.3954 55.316 36.1197 55.5085 35.8113 55.5745L32.5155 56.2791C32.2464 56.3366 32.0048 56.2929 31.8347 56.1563C31.6646 56.0196 31.571 55.7934 31.571 55.5197C31.571 55.4598 31.5646 55.4 31.552 55.3414C31.4236 54.7469 31.8043 54.1531 32.4006 54.0177C32.6376 53.9638 32.8402 53.8121 32.9576 53.6003C33.0749 53.3886 33.0959 53.1371 33.0153 52.9089L31.9495 49.8927C31.7043 49.1986 31.0181 48.7496 30.2794 48.801C29.8144 48.8333 29.3437 48.8497 28.8801 48.8497C24.2112 48.8497 19.6732 47.2064 16.102 44.2225C15.5701 43.778 14.8098 43.7144 14.2103 44.0638L11.4524 45.6707C11.2294 45.8007 11.0776 46.0243 11.0398 46.2787C11.0019 46.5332 11.0821 46.7909 11.2577 46.9796L11.6893 47.4433C12.0467 47.8272 12.2322 48.3264 12.2122 48.8492C12.1921 49.372 11.9685 49.8557 11.5828 50.2112C10.7865 50.9451 9.53859 50.8975 8.80107 50.1052L5.84954 46.9346C5.11202 46.1423 5.15978 44.9006 5.95608 44.1667C6.75227 43.4328 8.00022 43.4804 8.73785 44.2726L9.16926 44.7363C9.34494 44.9249 9.59726 45.0238 9.85493 45.0061C10.1128 44.988 10.3484 44.8546 10.4958 44.6432L12.3667 41.9587C12.7568 41.3991 12.7617 40.6728 12.3794 40.1084C10.1657 36.8407 8.99563 33.0217 8.99563 29.0646C8.99563 28.2853 9.04225 27.4979 9.13401 26.7243C9.2235 25.9709 8.78834 25.2592 8.07607 24.9936L5.13966 23.8984C4.91201 23.8135 4.65878 23.8292 4.44376 23.9417C4.22862 24.0542 4.07182 24.2526 4.01292 24.4872C3.86464 25.0775 3.25982 25.4442 2.66536 25.304C2.601 25.2889 2.53516 25.2813 2.46898 25.2813C2.19483 25.2813 1.97173 25.1906 1.84063 25.0257C1.70964 24.8609 1.67222 24.6239 1.73522 24.3585L2.5189 21.0613C2.59145 20.7561 2.79044 20.4859 3.06493 20.32C3.32396 20.1634 3.61994 20.1156 3.89898 20.1854C4.49277 20.3342 4.85334 20.9171 4.71973 21.5126C4.66685 21.7486 4.71757 21.9958 4.85948 22.1922C5.00127 22.3886 5.22039 22.5156 5.46213 22.541L8.65302 22.8781C9.38952 22.956 10.0917 22.5305 10.3622 21.844C10.9306 20.4015 11.6719 19.0246 12.5652 17.7514C13.0025 17.1283 12.9561 16.2955 12.4526 15.7264L10.3799 13.3845C10.2194 13.2031 9.98853 13.0983 9.74554 13.0967C9.50482 13.0985 9.27035 13.1967 9.10729 13.3762C8.69612 13.8286 8.00955 13.8727 7.54448 13.4765C7.32616 13.2905 7.19426 13.0225 7.17299 12.7218C7.15048 12.4027 7.25714 12.0847 7.46568 11.8492L9.44376 9.61617C9.64218 9.39215 9.91644 9.25842 10.2161 9.23964C10.5156 9.22119 10.8046 9.31929 11.0298 9.51683C11.4882 9.91893 11.5369 10.6216 11.1385 11.0833C10.9801 11.2668 10.9079 11.5087 10.94 11.7483C10.9721 11.9881 11.1055 12.2027 11.3066 12.3384L13.9661 14.1333C14.5786 14.5467 15.3996 14.501 15.9624 14.0221C18.9894 11.4464 22.6749 9.85037 26.6207 9.40674C27.3798 9.32132 27.9771 8.73616 28.0732 7.98377L28.4688 4.88779C28.4995 4.64793 28.4258 4.40638 28.2663 4.22388C28.1069 4.0415 27.8767 3.93537 27.6337 3.93221C27.0221 3.92451 26.5245 3.42341 26.5245 2.81528C26.5245 2.19878 27.0287 1.69722 27.6483 1.69722H30.6911C31.3107 1.69722 31.8148 2.19889 31.8148 2.81539C31.8148 3.42352 31.3172 3.92451 30.7056 3.93232C30.4626 3.93537 30.2324 4.0415 30.073 4.224C29.9135 4.40649 29.8399 4.64805 29.8705 4.88791L30.2756 8.05856C30.369 8.79001 30.9475 9.3728 31.6824 9.47576C35.1325 9.95989 38.4085 11.3517 41.1563 13.5007C41.7346 13.953 42.5529 13.9687 43.1462 13.5393L45.7116 11.6831C45.9101 11.5394 46.0367 11.3178 46.0592 11.0746C46.0817 10.8313 45.9978 10.5903 45.8289 10.4131C45.2273 9.78147 45.2405 8.80484 45.8589 8.18946C46.1564 7.89349 46.5501 7.73543 46.966 7.73905C47.3824 7.7446 47.7711 7.91498 48.0605 8.21888L48.331 8.50286C48.6551 8.84297 49.1948 8.85733 49.5366 8.535C49.8784 8.21254 49.8929 7.67547 49.5689 7.33536L49.2984 7.05138C48.6896 6.41225 47.8694 6.05382 46.9888 6.04205C46.1066 6.02916 45.2785 6.36677 44.6528 6.98938C43.6107 8.02632 43.401 9.56028 44.0345 10.7982L42.1782 12.1412C41.2265 11.3998 40.216 10.743 39.1604 10.1738L39.8572 8.7632C40.0649 8.34254 39.8906 7.83409 39.4679 7.62738C39.0452 7.42067 38.5342 7.594 38.3264 8.01466L37.6293 9.42621C35.8288 8.63139 33.9222 8.08017 31.9622 7.80116L31.6628 5.45723C32.7444 5.06011 33.5206 4.02125 33.5206 2.81539C33.5204 1.26288 32.2512 0 30.6911 0H27.6483C26.0882 0 24.8189 1.26299 24.8189 2.81528C24.8189 4.02113 25.5952 5.05988 26.6768 5.45712L26.387 7.72502C24.1973 7.97563 22.0822 8.55366 20.0989 9.43277L18.7004 6.84388C18.4775 6.43103 17.9603 6.27648 17.5455 6.49812C17.1307 6.71999 16.975 7.23456 17.198 7.64729L18.5686 10.1848C17.267 10.8904 16.0336 11.7324 14.887 12.704L12.9209 11.3771C13.3366 10.3071 13.0667 9.04085 12.1576 8.24355C11.5907 7.74618 10.8628 7.49874 10.1088 7.54581C9.35461 7.5931 8.66394 7.92981 8.16419 8.49393L6.18623 10.7269C5.67772 11.3008 5.41733 12.0712 5.47157 12.8406C5.52513 13.5982 5.86728 14.2819 6.43525 14.7657C7.35754 15.5513 8.62471 15.6504 9.62728 15.1022L11.1421 16.8142C10.1907 18.1758 9.39918 19.6461 8.78902 21.1858L6.43559 20.9373C6.30574 19.8061 5.49215 18.8345 4.31493 18.5396C3.58969 18.3579 2.83114 18.4751 2.1788 18.8695C1.51667 19.2698 1.03546 19.9262 0.858526 20.6707L0.0748462 23.9677C-0.107997 24.7373 0.0477835 25.5067 0.502504 26.0784C0.938122 26.6263 1.61423 26.9503 2.36926 26.9765C3.51703 27.2046 4.66378 26.6941 5.2835 25.7645L7.43452 26.5668C7.3381 27.3927 7.2892 28.2329 7.2892 29.0644C7.2892 29.496 7.30262 29.9261 7.32821 30.3543L4.91394 30.6812C4.44728 30.7444 4.12037 31.172 4.18393 31.6364C4.24215 32.0619 4.60795 32.3707 5.02788 32.3707C5.06609 32.3707 5.10497 32.3681 5.14398 32.3629L7.49638 32.0444C7.69003 33.4332 8.01853 34.7942 8.4778 36.1112L7.1299 36.8175C6.71316 37.0358 6.55328 37.549 6.77263 37.9637C6.92534 38.2522 7.22143 38.417 7.52799 38.417C7.66194 38.417 7.79794 38.3856 7.92461 38.3192L9.10547 37.7004C9.61477 38.8531 10.2275 39.965 10.9419 41.0237L9.68448 42.8279C8.28836 41.6352 6.17804 41.6481 4.79626 42.9215C3.31008 44.2913 3.22094 46.6089 4.59749 48.0877L7.54903 51.2583C8.9257 52.737 11.2548 52.8259 12.7412 51.4561C13.4612 50.7925 13.8784 49.8897 13.9159 48.9139C13.948 48.0791 13.6991 47.2765 13.2089 46.6134L15.0364 45.5485C16.453 46.7276 18.0093 47.7118 19.6605 48.4872L18.7784 50.572C18.5957 51.0038 18.7995 51.5014 19.2336 51.6832C19.3416 51.7285 19.4538 51.7499 19.5641 51.7499C19.8969 51.7499 20.2132 51.5547 20.3505 51.2303L21.2304 49.1504C22.3933 49.5887 23.594 49.9273 24.8188 50.1612V50.9012C24.8188 51.3698 25.2006 51.7498 25.6716 51.7498C26.1425 51.7498 26.5244 51.3698 26.5244 50.9012V50.4181C27.3036 50.5034 28.0898 50.5467 28.8794 50.5467C29.3681 50.5467 29.8641 50.53 30.3543 50.4968L31.1422 52.7266C30.1929 53.3256 29.6561 54.4603 29.8659 55.6095C29.8899 56.3588 30.2134 57.0351 30.762 57.4762C31.1889 57.8194 31.7273 58 32.2946 58C32.4852 58 32.6791 57.9796 32.873 57.9381L36.1688 57.2335C36.9207 57.0728 37.5904 56.6075 38.0065 55.9567C38.4161 55.3158 38.5495 54.5637 38.3819 53.8388C38.1098 52.6616 37.1503 51.8321 36.0164 51.6797L35.8217 49.4102C37.2664 48.9223 38.6595 48.2748 39.9724 47.4905L41.1341 49.0674C41.3012 49.2942 41.5602 49.4143 41.8226 49.4143C41.9976 49.4143 42.1742 49.3609 42.3261 49.25C42.706 48.973 42.7881 48.442 42.5098 48.064L41.4016 46.5598C42.373 45.8711 43.2891 45.1039 44.1339 44.2647L45.8562 45.2634C45.462 46.4458 45.7992 47.8758 46.723 48.6252C47.3087 49.1005 48.0453 49.3197 48.7973 49.2442C49.5491 49.168 50.2262 48.8052 50.7037 48.2224L52.8097 45.6524C53.2992 45.055 53.5044 44.2997 53.3726 43.5802C53.2445 42.881 52.8069 42.2621 52.1677 41.8724C51.2225 41.1503 49.7088 41.1193 48.6313 41.7393L47.2404 40.3687C48.2022 38.8251 48.963 37.166 49.5024 35.4358L51.8727 35.5099C52.0968 36.6352 53.0058 37.5612 54.2027 37.7509C54.9494 37.8692 55.697 37.691 56.3087 37.2495C56.9204 36.8081 57.3227 36.1559 57.4415 35.4133L57.9654 32.1385C58.0874 31.3777 57.8835 30.622 57.4064 30.0657Z" fill="#FF9200"/>
</svg>
