<svg width="37" height="37" viewBox="0 0 37 37" fill="none" xmlns="http://www.w3.org/2000/svg">
<path d="M10.058 32.4519C12.6612 34.0716 15.7213 35 19.004 35C28.3786 35 36 27.374 36 18C36 8.62604 28.3786 1 19.004 1H18.996C9.62147 1 2 8.62396 2 18C2 21.5313 3.08158 24.8199 4.93688 27.54L3.10392 33.004L2.47604 34.8756L4.35649 34.2745L10.058 32.4519Z" fill="#4CAF50" stroke="white" stroke-width="2"/>
<path d="M28.314 24.5944C27.928 25.6844 26.396 26.5884 25.174 26.8524C24.338 27.0304 23.246 27.1724 19.57 25.6484C14.868 23.7004 11.84 18.9224 11.604 18.6124C11.378 18.3024 9.70398 16.0824 9.70398 13.7864C9.70398 11.4904 10.87 10.3724 11.34 9.89236C11.726 9.49836 12.364 9.31836 12.976 9.31836C13.174 9.31836 13.352 9.32836 13.512 9.33636C13.982 9.35636 14.218 9.38436 14.528 10.1264C14.914 11.0564 15.854 13.3524 15.966 13.5884C16.08 13.8244 16.194 14.1444 16.034 14.4544C15.884 14.7744 15.752 14.9164 15.516 15.1884C15.28 15.4604 15.056 15.6684 14.82 15.9604C14.604 16.2144 14.36 16.4864 14.632 16.9564C14.904 17.4164 15.844 18.9504 17.228 20.1824C19.014 21.7724 20.462 22.2804 20.98 22.4964C21.366 22.6564 21.826 22.6184 22.108 22.3184C22.466 21.9324 22.908 21.2924 23.358 20.6624C23.678 20.2104 24.082 20.1544 24.506 20.3144C24.938 20.4644 27.224 21.5944 27.694 21.8284C28.164 22.0644 28.474 22.1764 28.588 22.3744C28.7 22.5724 28.7 23.5024 28.314 24.5944Z" fill="#FAFAFA"/>
</svg>
