<svg width="63" height="64" viewBox="0 0 63 64" fill="none" xmlns="http://www.w3.org/2000/svg">
<path d="M42.5634 35.7781L34.1267 30.5308C34.0239 30.4668 33.9057 30.4234 33.7864 30.4045L31.145 29.9327C30.6564 29.8453 30.1765 30.1856 30.0903 30.6802C30.0042 31.1748 30.34 31.6605 30.8286 31.7478L33.3212 32.193L41.6102 37.3486C42.0149 37.6003 42.5699 37.478 42.8385 37.0825C43.1266 36.6579 42.9965 36.0478 42.5634 35.7781Z" fill="white"/>
<path d="M61.7876 36.0736C61.4441 35.7017 60.8681 35.682 60.5008 36.0295L56.8101 39.521L39.8988 22.6308L61.7449 1.9068C62.1117 1.55875 62.1304 0.975567 61.7867 0.604302C61.4429 0.233037 60.8667 0.214118 60.4999 0.56204L37.963 21.9413C37.5914 22.2938 37.5836 22.9076 37.9461 23.2697L39.442 24.7635L38.9645 25.1903L28.9661 24.3188C28.8118 24.3055 28.6515 24.3324 28.5107 24.3983L20.5886 28.0505C20.5656 28.0445 20.5425 28.0386 20.5186 28.0343L15.9617 27.2202L16.3302 26.2668C16.5124 25.7952 16.2848 25.2633 15.8204 25.0755L1.25429 19.1777C0.787266 18.9884 0.257615 19.2185 0.07095 19.6911C-0.115836 20.1636 0.111244 20.7 0.578149 20.889L14.3053 26.4471L6.21583 47.3727L1.22007 45.5816C0.746001 45.4118 0.225816 45.6628 0.0579636 46.1427C-0.109889 46.6224 0.13831 47.1491 0.612253 47.319L6.43866 49.4078C6.89598 49.5718 7.41374 49.3318 7.59033 48.8748L8.94225 45.3777L12.4846 47.3871L12.0939 48.0281C10.9869 49.8443 11.5458 52.2335 13.3402 53.3542C14.289 53.9469 15.4669 54.0874 16.5272 53.74C16.6972 54.8584 17.3465 55.8565 18.2987 56.4511C19.2475 57.0438 20.4253 57.1843 21.4857 56.8369C21.6558 57.9553 22.3049 58.9533 23.257 59.548C24.2088 60.1425 25.3805 60.2824 26.4443 59.9349C26.6147 61.0528 27.2637 62.0504 28.2155 62.6449C29.599 63.5089 31.4302 63.3798 32.6773 62.3218C32.9916 62.0551 33.2622 61.7368 33.4775 61.3834L34.0985 60.3647L34.6098 60.6827C35.9951 61.5443 37.8259 61.4116 39.071 60.3512C39.3848 60.0839 39.6548 59.7651 39.8695 59.4114C40.2962 58.7083 40.4728 57.9203 40.4262 57.1532C40.7153 57.2236 41.0112 57.2615 41.3097 57.2615C42.6319 57.2615 43.8826 56.5557 44.5745 55.4158C44.9913 54.7291 45.1818 53.9461 45.1334 53.158C45.4218 53.228 45.7171 53.2656 46.0147 53.2656C47.3369 53.2656 48.5877 52.5598 49.2795 51.42C49.6967 50.7327 49.887 49.9493 49.8383 49.1606C50.1298 49.2309 50.4258 49.2676 50.7205 49.2676C52.0063 49.2676 53.2636 48.6123 53.9846 47.4244C55.0883 45.6061 54.5249 43.2179 52.7286 42.1007L52.1047 41.7127L54.197 39.4998L56.1541 41.4545C56.4973 41.7971 57.063 41.8047 57.4151 41.4718L61.7444 37.3762C62.1116 37.0286 62.131 36.4455 61.7876 36.0736ZM17.0525 51.1249C16.4724 52.0762 15.236 52.3725 14.2962 51.7857C13.3563 51.1987 13.0636 49.9472 13.6433 48.9958L18.7425 40.6306C19.3116 39.6969 20.5328 39.3916 21.4653 39.9492C22.4302 40.5267 22.6964 41.8656 22.1172 42.8162L17.0525 51.1249ZM22.0107 54.2218C21.4309 55.1731 20.1944 55.4695 19.2547 54.8826C18.3262 54.3026 18.028 53.034 18.6018 52.0927L22.681 45.4005C23.2501 44.467 24.4713 44.1615 25.4038 44.7192C26.3687 45.2966 26.635 46.6356 26.0556 47.5861L22.0107 54.2218ZM26.9696 57.3187C26.6885 57.7795 26.247 58.1021 25.7265 58.227C25.2057 58.3519 24.6684 58.2638 24.2132 57.9795C23.2848 57.3995 22.9866 56.1308 23.5605 55.1896L26.6199 50.1704C27.189 49.2368 28.4103 48.9315 29.3427 49.4891C30.3076 50.0665 30.5739 51.4055 29.9946 52.356L26.9696 57.3187ZM33.9332 57.1262L31.928 60.4157C31.355 61.3556 30.1017 61.6572 29.1717 61.0764C28.2433 60.4966 27.9453 59.2277 28.519 58.2865L30.5586 54.9405C31.1277 54.0071 32.349 53.7013 33.2813 54.2593C34.2462 54.8366 34.5125 56.1757 33.9332 57.1262ZM50.5175 40.7254L46.0048 37.9186C45.5863 37.6583 45.0097 37.7977 44.7526 38.2213C44.4954 38.6449 44.6332 39.2286 45.0516 39.4888L51.7751 43.6706C52.7159 44.2559 53.0111 45.5068 52.433 46.4593C51.8548 47.4116 50.6189 47.7104 49.678 47.1253L42.4671 42.6401C42.0388 42.3735 41.4781 42.5093 41.215 42.9428C40.9518 43.3764 41.0857 43.944 41.514 44.2103L47.0702 47.6662C47.9998 48.2443 48.3002 49.5126 47.7282 50.4549C47.157 51.3958 45.9041 51.6997 44.9732 51.1208L39.9379 47.9889C39.5095 47.7225 38.9489 47.8581 38.6858 48.2916C38.4226 48.7252 38.5565 49.2928 38.9848 49.5591L42.3654 51.6618C43.2948 52.24 43.5954 53.508 43.0233 54.4504C42.4522 55.3912 41.1993 55.6954 40.2684 55.1164C40.2684 55.1164 37.2954 53.2691 37.2676 53.2556C36.8519 53.0524 36.3436 53.197 36.097 53.6034C35.8338 54.0369 35.9677 54.6045 36.396 54.8708L37.6606 55.6573C38.6014 56.2426 38.8965 57.4935 38.3184 58.446C37.7472 59.3869 36.4943 59.6909 35.5634 59.112L35.0551 58.7958L35.4832 58.0934C36.0305 57.1956 36.2003 56.0899 35.949 55.0599C35.7012 54.0434 35.0829 53.1955 34.2085 52.6722C33.5261 52.2641 32.7629 52.0988 32.0196 52.1495C32.1592 51.5426 32.1599 50.903 32.0104 50.2899C31.7625 49.2734 31.1443 48.4254 30.2698 47.9022C29.5875 47.494 28.8242 47.3286 28.081 47.3793C28.4563 45.7468 27.7653 43.9904 26.3312 43.1321C25.6488 42.724 24.8856 42.5587 24.1423 42.6093C24.5177 40.9768 23.8266 39.2204 22.3925 38.3621C20.6122 37.2968 18.2801 37.8803 17.1938 39.6621L13.4423 45.8166L9.6122 43.6448L15.2847 28.9709L18.3733 29.5226C17.4948 30.6271 17.2479 32.1821 17.8668 33.5581C18.5074 34.9818 19.899 35.8242 21.3523 35.8241C21.8816 35.8241 22.4191 35.7123 22.9314 35.4761L28.2629 33.0181C28.7144 32.81 28.9197 32.2545 28.714 31.7975C28.5084 31.3406 27.9597 31.1325 27.5082 31.3409L22.1766 33.7988C21.1718 34.2622 19.9816 33.8115 19.5238 32.7941C19.0661 31.7768 19.5113 30.5722 20.5163 30.1088L29.0478 26.1756L39.1964 27.0603C39.2224 27.0626 39.2485 27.0637 39.2745 27.0637C39.4954 27.0637 39.7099 26.9823 39.877 26.8331L40.7409 26.061L52.9003 38.205L50.5175 40.7254Z" fill="white"/>
</svg>
