<svg width="63" height="63" viewBox="0 0 63 63" fill="none" xmlns="http://www.w3.org/2000/svg">
<path d="M61.95 0H1.05C0.470137 0 0 0.469633 0 1.05V7.35C0 7.93037 0.470137 8.4 1.05 8.4H3.15V52.5H1.05C0.470137 52.5 0 52.9696 0 53.55V57.75C0 58.3304 0.470137 58.8 1.05 58.8H26.25V59.85C26.25 61.587 27.663 63 29.4 63H33.6C35.337 63 36.75 61.587 36.75 59.85V58.8H61.95C62.5299 58.8 63 58.3304 63 57.75V53.55C63 52.9696 62.5299 52.5 61.95 52.5H59.85V8.4H61.95C62.5299 8.4 63 7.93037 63 7.35V1.05C63 0.469633 62.5299 0 61.95 0ZM34.65 59.85C34.65 60.4293 34.1788 60.9 33.6 60.9H29.4C28.8212 60.9 28.35 60.4293 28.35 59.85V58.8H34.65V59.85ZM60.9 56.7H2.1V54.6H60.9V56.7ZM57.75 52.5H5.25V8.4H57.75V52.5ZM60.9 6.3H2.1V2.1H60.9V6.3Z" fill="white"/>
<path d="M49.35 38.85C49.35 39.2602 49.4343 39.6499 49.5776 40.0096L45.6333 43.4655C45.1776 43.2087 44.6594 43.05 44.1 43.05C43.4552 43.05 42.8561 43.246 42.3563 43.5797L38.6931 40.8325C38.7858 40.5359 38.85 40.2268 38.85 39.9C38.85 38.163 37.437 36.75 35.7 36.75C33.963 36.75 32.55 38.163 32.55 39.9C32.55 40.3102 32.6343 40.6999 32.7776 41.0596L28.8333 44.5155C28.3776 44.2587 27.8594 44.1 27.3 44.1C25.933 44.1 24.7783 44.9804 24.3435 46.2H15.75V48.3H24.3435C24.7784 49.5196 25.933 50.4 27.3 50.4C29.037 50.4 30.45 48.987 30.45 47.25C30.45 46.8398 30.3657 46.4501 30.2224 46.0903L34.1667 42.6345C34.6224 42.8913 35.1406 43.05 35.7 43.05C36.3448 43.05 36.9439 42.854 37.4437 42.5203L41.1069 45.2675C41.0142 45.5641 40.95 45.8732 40.95 46.2C40.95 47.937 42.363 49.35 44.1 49.35C45.837 49.35 47.25 47.937 47.25 46.2C47.25 45.7898 47.1657 45.4001 47.0224 45.0403L50.9667 41.5845C51.4224 41.8413 51.9406 42 52.5 42C54.237 42 55.65 40.587 55.65 38.85C55.65 37.113 54.237 35.7 52.5 35.7C50.763 35.7 49.35 37.113 49.35 38.85ZM27.3 48.3C26.7212 48.3 26.25 47.8293 26.25 47.25C26.25 46.6707 26.7212 46.2 27.3 46.2C27.8788 46.2 28.35 46.6707 28.35 47.25C28.35 47.8293 27.8788 48.3 27.3 48.3ZM35.7 40.95C35.1212 40.95 34.65 40.4793 34.65 39.9C34.65 39.3207 35.1212 38.85 35.7 38.85C36.2788 38.85 36.75 39.3207 36.75 39.9C36.75 40.4793 36.2788 40.95 35.7 40.95ZM44.1 47.25C43.5212 47.25 43.05 46.7793 43.05 46.2C43.05 45.6207 43.5212 45.15 44.1 45.15C44.6788 45.15 45.15 45.6207 45.15 46.2C45.15 46.7793 44.6788 47.25 44.1 47.25ZM53.55 38.85C53.55 39.4293 53.0788 39.9 52.5 39.9C51.9212 39.9 51.45 39.4293 51.45 38.85C51.45 38.2706 51.9212 37.8 52.5 37.8C53.0788 37.8 53.55 38.2706 53.55 38.85Z" fill="white"/>
<path d="M18.9 29.4C22.9529 29.4 26.25 26.1023 26.25 22.05C26.25 17.9977 22.9529 14.7 18.9 14.7C14.8471 14.7 11.55 17.9977 11.55 22.05C11.55 26.1023 14.8471 29.4 18.9 29.4ZM19.95 16.9061C20.619 17.0425 21.2399 17.3097 21.7906 17.6747L19.95 19.5152V16.9061ZM17.85 16.9061V22.05C17.85 22.4745 18.1058 22.858 18.498 23.02C18.6283 23.0744 18.7646 23.1 18.9 23.1C19.1733 23.1 19.4414 22.9934 19.6424 22.7924L23.2753 19.1594C23.8255 19.9895 24.15 20.9818 24.15 22.05C24.15 24.9447 21.7947 27.3 18.9 27.3C16.0053 27.3 13.65 24.9447 13.65 22.05C13.65 19.5148 15.4567 17.394 17.85 16.9061Z" fill="white"/>
<path d="M18.9 33.6C25.2687 33.6 30.45 28.4187 30.45 22.05C30.45 15.6813 25.2687 10.5 18.9 10.5V12.6C24.1105 12.6 28.35 16.839 28.35 22.05C28.35 27.261 24.1105 31.5 18.9 31.5C13.6895 31.5 9.45 27.261 9.45 22.05H7.35C7.35 28.4187 12.5313 33.6 18.9 33.6Z" fill="white"/>
<path d="M54.6 31.5V29.4H52.5V12.6C52.5 12.0196 52.0299 11.55 51.45 11.55H47.25C46.6701 11.55 46.2 12.0196 46.2 12.6V19.95H44.1V17.85C44.1 17.2696 43.6299 16.8 43.05 16.8H38.85C38.2701 16.8 37.8 17.2696 37.8 17.85V23.1H34.65C34.0701 23.1 33.6 23.5696 33.6 24.15V29.4H31.5V31.5H54.6ZM48.3 13.65H50.4V29.4H48.3V13.65ZM46.2 22.05V29.4H44.1V22.05H46.2ZM39.9 18.9H42V29.4H39.9V18.9ZM35.7 25.2H37.8V29.4H35.7V25.2Z" fill="white"/>
<path d="M11.55 46.2H13.65V48.3H11.55V46.2Z" fill="white"/>
<path d="M7.35 46.2H9.45V48.3H7.35V46.2Z" fill="white"/>
</svg>
