<svg width="306" height="212" viewBox="0 0 306 212" fill="none" xmlns="http://www.w3.org/2000/svg">
<path opacity="0.1" fill-rule="evenodd" clip-rule="evenodd" d="M51.4309 165.032V188.516H74.9223V212H98.418V188.516H121.915V165.032H98.418V141.542H74.9223V165.032H51.4309ZM279.107 102.857H265.66V116.302H279.107V129.749H292.554V116.302H306V102.857H292.554V89.4208H279.107V102.857ZM-43 212H-7.63218V176.686H27.6858V141.32H-7.63218L-7.63218 106H-43L-43 212ZM-7.63218 106H27.6858V70.6352H63.0545V106H98.418V141.32H133.746V106H169.109V70.6352H192.607V94.1233L216.103 94.1233V70.6352H239.6V47.1496H216.103V23.6649H192.607V47.1496H169.109V70.6352H133.746V35.3136H98.418V70.6352H63.0545V35.3136H27.6858V0L-7.63218 0V35.3136H-43V70.6352H-7.63218V106ZM216.103 112.049V130.554H197.592V149.054H216.103V167.554H234.615V149.054H253.122V130.554H234.615V112.049H216.103Z" fill="white"/>
</svg>
