<svg width="303" height="184" viewBox="0 0 303 184" fill="none" xmlns="http://www.w3.org/2000/svg">
<path opacity="0.1" fill-rule="evenodd" clip-rule="evenodd" d="M81.9844 143.235V163.618H102.38V184H122.778V163.618H143.178V143.235H122.778V122.848H102.38V143.235H81.9844V143.235ZM279.652 89.2723H267.977V100.942H279.652V112.612H291.326V100.942H303V89.2723H291.326V77.6105H279.652V89.2723ZM0 184H30.7062V153.35H61.3691L61.3691 122.655H30.7062V92.0004H0L0 184V184ZM30.7062 92.0004H61.3691V61.306H92.076V92.0004H122.778V122.655H153.45V92.0004H184.152V61.306H204.553V81.692H224.952V61.306H245.352V40.9223H224.952V20.5394H204.553V40.9223H184.152V61.306H153.45V30.6496H122.778V61.306H92.076V30.6496L61.3691 30.6496V0L30.7062 0V30.6496H0L0 61.306H30.7062L30.7062 92.0004ZM224.952 97.2499V113.311H208.881V129.368H224.952V145.424H241.024V129.368H257.092V113.311L241.024 113.311V97.2499H224.952Z" fill="white"/>
</svg>
